<?xml version="1.0" encoding="UTF-8" standalone="no"?>
<svg
   xmlns:dc="http://purl.org/dc/elements/1.1/"
   xmlns:cc="http://creativecommons.org/ns#"
   xmlns:rdf="http://www.w3.org/1999/02/22-rdf-syntax-ns#"
   xmlns:svg="http://www.w3.org/2000/svg"
   xmlns="http://www.w3.org/2000/svg"
   xmlns:sodipodi="http://sodipodi.sourceforge.net/DTD/sodipodi-0.dtd"
   xmlns:inkscape="http://www.inkscape.org/namespaces/inkscape"
   inkscape:version="1.0 (4035a4fb49, 2020-05-01)"
   height="557"
   width="512"
   sodipodi:docname="list.svg"
   id="svg4"
   version="1.1"
   viewBox="0 0 512 557">
  <metadata
     id="metadata10">
    <rdf:RDF>
      <cc:Work
         rdf:about="">
        <dc:format>image/svg+xml</dc:format>
        <dc:type
           rdf:resource="http://purl.org/dc/dcmitype/StillImage" />
        <dc:title></dc:title>
      </cc:Work>
    </rdf:RDF>
  </metadata>
  <defs
     id="defs8" />
  <sodipodi:namedview
     inkscape:current-layer="svg4"
     inkscape:window-maximized="1"
     inkscape:window-y="-8"
     inkscape:window-x="-8"
     inkscape:cy="285.10684"
     inkscape:cx="-48.264441"
     inkscape:zoom="0.52539063"
     showgrid="false"
     id="namedview6"
     inkscape:window-height="705"
     inkscape:window-width="1360"
     inkscape:pageshadow="2"
     inkscape:pageopacity="0"
     guidetolerance="10"
     gridtolerance="10"
     objecttolerance="10"
     borderopacity="1"
     bordercolor="#666666"
     pagecolor="#ffffff" />
  <!-- Font Awesome Free 5.15.4 by @fontawesome - https://fontawesome.com License - https://fontawesome.com/license/free (Icons: CC BY 4.0, Fonts: SIL OFL 1.1, Code: MIT License) -->
  <path
     style="fill:#ffffff;fill-opacity:1"
     id="path2"
     d="M 80,390 H 16 A 16,16 0 0 0 0,406 v 64 a 16,16 0 0 0 16,16 H 80 A 16,16 0 0 0 96,470 V 406 A 16,16 0 0 0 80,390 Z M 80,70 H 16 A 16,16 0 0 0 0,86 v 64 a 16,16 0 0 0 16,16 H 80 A 16,16 0 0 0 96,150 V 86 A 16,16 0 0 0 80,70 Z m 0,160 H 16 A 16,16 0 0 0 0,246 v 64 a 16,16 0 0 0 16,16 H 80 A 16,16 0 0 0 96,310 V 246 A 16,16 0 0 0 80,230 Z M 496,406 H 176 a 16,16 0 0 0 -16,16 v 32 a 16,16 0 0 0 16,16 h 320 a 16,16 0 0 0 16,-16 V 422 A 16,16 0 0 0 496,406 Z M 496,86 H 176 a 16,16 0 0 0 -16,16 v 32 a 16,16 0 0 0 16,16 h 320 a 16,16 0 0 0 16,-16 V 102 A 16,16 0 0 0 496,86 Z m 0,160 H 176 a 16,16 0 0 0 -16,16 v 32 a 16,16 0 0 0 16,16 h 320 a 16,16 0 0 0 16,-16 v -32 a 16,16 0 0 0 -16,-16 z" />
</svg>
