<?xml version="1.0" encoding="UTF-8" standalone="no"?>
<svg
   xmlns:dc="http://purl.org/dc/elements/1.1/"
   xmlns:cc="http://creativecommons.org/ns#"
   xmlns:rdf="http://www.w3.org/1999/02/22-rdf-syntax-ns#"
   xmlns:svg="http://www.w3.org/2000/svg"
   xmlns="http://www.w3.org/2000/svg"
   xmlns:sodipodi="http://sodipodi.sourceforge.net/DTD/sodipodi-0.dtd"
   xmlns:inkscape="http://www.inkscape.org/namespaces/inkscape"
   version="1.1"
   id="Layer_1"
   x="0px"
   y="0px"
   width="16.009018"
   height="16"
   viewBox="0 0 16.009018 16"
   enable-background="new 0 0 64 16"
   xml:space="preserve"
   sodipodi:docname="paste-open.svg"
   inkscape:version="1.0 (4035a4fb49, 2020-05-01)"><metadata
   id="metadata25"><rdf:RDF><cc:Work
       rdf:about=""><dc:format>image/svg+xml</dc:format><dc:type
         rdf:resource="http://purl.org/dc/dcmitype/StillImage" /><dc:title /></cc:Work></rdf:RDF></metadata><defs
   id="defs23">
	
</defs><sodipodi:namedview
   inkscape:document-rotation="0"
   pagecolor="#ffffff"
   bordercolor="#666666"
   borderopacity="1"
   objecttolerance="10"
   gridtolerance="10"
   guidetolerance="10"
   inkscape:pageopacity="0"
   inkscape:pageshadow="2"
   inkscape:window-width="1360"
   inkscape:window-height="705"
   id="namedview21"
   showgrid="false"
   inkscape:zoom="12.827359"
   inkscape:cx="-13.497146"
   inkscape:cy="8.2117722"
   inkscape:window-x="-8"
   inkscape:window-y="-8"
   inkscape:window-maximized="1"
   inkscape:current-layer="Layer_1" />


<g
   id="g14"
   style="fill:#ffffff;fill-opacity:0.80784315">
	<path
   fill="#6C7079"
   d="M 15.8,7.4000001 C 15.6,7.1999998 15.3,7 15,7 H 4 C 3.5999999,7 3.2,7.1999998 3.0999999,7.5999999 l -3,7.0000001 C -0.1,15.2 0.1,16 1,16 h 11 c 0.4,0 0.8,-0.2 0.9,-0.6 l 3,-7.0000004 C 16.1,8.1000004 16,7.6999998 15.8,7.4000001 Z"
   id="path10"
   style="fill:#ffffff;fill-opacity:0.80784315" />
	<path
   fill="#6C7079"
   d="M 1.2,6.8000002 C 1.7,5.6999998 2.8,5 4,5 h 9 V 3 C 13,2.4000001 12.6,2 12,2 H 6.4000001 L 4.6999998,0.3 C 4.5,0.1 4.3000002,0 4,0 H 1 C 0.4,0 0,0.4 0,1 v 8.6999998 z"
   id="path12"
   style="fill:#ffffff;fill-opacity:0.80784315" />
</g>

</svg>
