<?xml version="1.0" encoding="UTF-8" standalone="no"?>
<svg
   xmlns:dc="http://purl.org/dc/elements/1.1/"
   xmlns:cc="http://creativecommons.org/ns#"
   xmlns:rdf="http://www.w3.org/1999/02/22-rdf-syntax-ns#"
   xmlns:svg="http://www.w3.org/2000/svg"
   xmlns="http://www.w3.org/2000/svg"
   xmlns:sodipodi="http://sodipodi.sourceforge.net/DTD/sodipodi-0.dtd"
   xmlns:inkscape="http://www.inkscape.org/namespaces/inkscape"
   version="1.1"
   id="Layer_1"
   x="0px"
   y="0px"
   width="16"
   height="16"
   viewBox="0 0 16 16"
   enable-background="new 0 0 64 16"
   xml:space="preserve"
   sodipodi:docname="paste-closed.svg"
   inkscape:version="1.0 (4035a4fb49, 2020-05-01)"><metadata
   id="metadata25"><rdf:RDF><cc:Work
       rdf:about=""><dc:format>image/svg+xml</dc:format><dc:type
         rdf:resource="http://purl.org/dc/dcmitype/StillImage" /><dc:title /></cc:Work></rdf:RDF></metadata><defs
   id="defs23">
	
</defs><sodipodi:namedview
   inkscape:document-rotation="0"
   pagecolor="#ffffff"
   bordercolor="#666666"
   borderopacity="1"
   objecttolerance="10"
   gridtolerance="10"
   guidetolerance="10"
   inkscape:pageopacity="0"
   inkscape:pageshadow="2"
   inkscape:window-width="1360"
   inkscape:window-height="705"
   id="namedview21"
   showgrid="false"
   inkscape:zoom="12.827359"
   inkscape:cx="19.272082"
   inkscape:cy="8.2251478"
   inkscape:window-x="-8"
   inkscape:window-y="-8"
   inkscape:window-maximized="1"
   inkscape:current-layer="Layer_1" />

<path
   id="path6"
   style="fill:#ffffff;fill-opacity:0.80722892;stroke:none;stroke-opacity:1"
   d="M 1,0 C 0.4,0 0,0.4 0,1 v 14 c 0,0.6 0.4,1 1,1 h 14 c 0.6,0 1,-0.4 1,-1 V 4 C 16,3.4000001 15.6,3 15,3 H 8.40039 L 5.701172,0.30078125 C 5.501172,0.10078125 5.3,0 5,0 Z m 6.460937,5.2324219 h 1.080078 c 0.223066,0 0.40625,0.1831905 0.40625,0.40625 v 2.9746093 h 2.97461 c 0.223065,0 0.404297,0.1812389 0.404297,0.4042969 v 1.0820309 c 0,0.223066 -0.181239,0.40625 -0.404297,0.40625 h -2.97461 v 2.97461 c 0,0.223067 -0.183187,0.404297 -0.40625,0.404297 H 7.460937 c -0.223065,0 -0.40625,-0.18124 -0.40625,-0.404297 v -2.97461 H 4.080078 c -0.223065,0 -0.40625,-0.183195 -0.40625,-0.40625 V 9.0175781 c 0,-0.223066 0.183194,-0.4042969 0.40625,-0.4042969 H 7.054687 V 5.6386719 c 0,-0.2230659 0.183192,-0.40625 0.40625,-0.40625 z" />


</svg>
